<?xml version="1.0" encoding="UTF-8" ?>
<!DOCTYPE svg PUBLIC "-//W3C//DTD SVG 1.1//EN" "http://www.w3.org/Graphics/SVG/1.1/DTD/svg11.dtd">
<svg width="462pt" height="180pt" viewBox="0 0 462 180" version="1.1" xmlns="http://www.w3.org/2000/svg">
<g id="#ffffffff">
<path fill="#ffffff" opacity="1.00" d=" M 281.47 124.85 C 281.01 123.92 280.07 121.33 281.94 121.66 C 284.02 121.90 281.76 123.81 281.47 124.85 Z" />
<path fill="#ffffff" opacity="1.00" d=" M 280.00 131.06 C 279.13 129.92 280.28 128.76 280.62 127.67 C 281.46 129.01 282.24 130.40 282.92 131.83 C 281.92 131.64 280.95 131.39 280.00 131.06 Z" />
</g>
<g id="#ee1a23ff">
<path fill="#ee1a23" opacity="1.00" d=" M 117.73 56.79 C 121.52 53.69 124.85 49.99 128.96 47.30 C 130.91 48.54 132.30 51.00 134.86 50.91 C 137.44 50.92 139.80 49.69 142.23 49.00 C 140.24 53.04 138.02 57.55 133.68 59.50 C 130.19 60.72 126.83 58.68 123.58 57.65 C 123.48 67.09 123.48 76.52 123.43 85.95 C 123.45 88.85 123.46 92.13 125.55 94.41 C 126.98 95.71 128.72 96.61 130.36 97.64 C 130.39 92.20 130.42 86.76 130.50 81.31 C 128.69 81.33 126.88 81.35 125.07 81.35 C 125.42 78.94 126.66 76.85 128.03 74.89 C 133.40 74.91 138.77 74.86 144.14 74.93 C 144.08 81.96 144.23 89.00 144.05 96.04 C 144.17 97.37 143.54 98.49 142.46 99.22 C 137.40 103.37 132.38 107.56 127.42 111.83 C 122.99 108.86 118.86 105.47 114.50 102.39 C 112.05 100.57 109.00 98.39 109.18 94.96 C 109.27 84.86 108.91 74.74 109.49 64.66 C 111.98 61.78 114.77 59.19 117.73 56.79 Z" />
<path fill="#ee1a23" opacity="1.00" d=" M 417.97 52.86 C 420.19 50.99 422.30 48.89 424.91 47.58 C 427.53 49.38 430.11 51.42 431.98 54.01 C 432.71 71.62 431.48 89.31 432.41 106.92 C 430.27 108.42 428.30 110.16 426.05 111.50 C 423.22 110.81 420.76 108.37 419.20 105.97 C 418.29 101.39 419.08 96.66 419.14 92.03 C 419.27 79.57 419.10 67.11 419.33 54.65 C 418.99 54.20 418.31 53.31 417.97 52.86 Z" />
<path fill="#ee1a23" opacity="1.00" d=" M 188.93 53.25 C 191.37 51.46 193.59 49.36 196.12 47.71 C 200.00 49.53 204.70 52.99 204.11 57.93 C 203.82 74.31 203.69 90.71 203.89 107.10 C 201.56 108.45 199.72 110.83 197.09 111.52 C 194.74 110.09 192.48 108.33 190.81 106.13 C 190.41 88.66 190.90 71.16 190.82 53.68 C 190.35 53.57 189.40 53.36 188.93 53.25 Z" />
<path fill="#ee1a23" opacity="1.00" d=" M 235.26 47.63 C 238.05 50.38 243.21 52.32 242.63 57.00 C 242.45 73.15 242.55 89.30 242.41 105.45 C 242.78 105.76 243.52 106.38 243.89 106.70 C 241.69 108.19 239.64 109.90 237.38 111.30 C 236.41 112.16 235.38 111.04 234.62 110.49 C 232.83 108.99 231.03 107.48 229.17 106.06 C 227.27 108.03 225.31 109.95 223.32 111.83 C 219.66 109.87 216.38 107.27 213.25 104.57 C 210.94 102.80 210.82 99.62 210.95 96.98 C 211.39 91.29 210.97 85.58 211.21 79.89 C 211.09 78.09 212.80 77.09 213.97 76.06 C 218.23 73.04 222.57 70.12 227.01 67.36 C 227.83 68.16 228.64 68.95 229.46 69.75 C 229.55 65.48 229.60 61.22 229.57 56.95 C 229.72 55.55 229.18 54.27 228.50 53.08 C 230.84 51.37 233.09 49.55 235.26 47.63 M 224.15 76.96 C 224.19 83.65 224.09 90.33 223.98 97.01 C 223.88 100.17 226.37 102.68 229.39 103.20 C 229.60 97.47 229.50 91.73 229.56 86.00 C 229.94 82.07 226.55 79.51 224.15 76.96 Z" />
<path fill="#ee1a23" opacity="1.00" d=" M 358.03 53.16 C 360.45 51.39 362.74 49.44 365.06 47.53 C 367.93 50.22 373.11 52.27 372.43 56.99 C 372.30 73.12 372.31 89.25 372.22 105.38 C 372.61 105.69 373.41 106.32 373.80 106.64 C 371.20 108.13 369.09 110.74 366.19 111.53 C 363.56 110.21 361.69 107.67 359.10 106.22 C 356.92 107.97 355.02 110.03 352.93 111.88 C 349.16 109.46 345.44 106.85 342.18 103.77 C 339.83 99.60 341.14 94.53 340.83 89.98 C 341.16 86.16 340.09 81.99 341.38 78.39 C 345.61 73.99 351.31 71.34 356.08 67.59 C 356.92 67.96 358.61 68.72 359.45 69.10 C 359.34 64.25 359.30 59.41 359.47 54.57 C 359.11 54.21 358.39 53.51 358.03 53.16 M 353.93 77.35 C 353.95 84.23 353.60 91.13 353.98 98.01 C 354.07 100.92 356.69 102.63 359.22 103.33 C 359.40 97.22 359.42 91.10 359.37 84.99 C 359.31 81.58 356.33 79.33 353.93 77.35 Z" />
<path fill="#ee1a23" opacity="1.00" d=" M 166.54 67.69 C 168.99 66.05 171.08 69.10 172.99 70.27 C 176.39 73.47 181.36 75.53 183.26 80.01 C 183.35 86.62 183.87 93.40 182.87 99.92 C 178.74 104.76 172.98 107.97 167.97 111.84 C 163.80 108.78 159.85 105.44 155.73 102.31 C 153.99 100.89 151.82 99.34 151.70 96.87 C 151.37 92.00 151.69 87.11 151.70 82.23 C 151.06 82.24 149.78 82.26 149.15 82.28 C 154.99 77.47 160.74 72.55 166.54 67.69 M 164.47 78.34 C 164.54 82.55 164.23 86.77 164.54 90.98 C 164.84 94.63 167.59 97.26 170.39 99.27 C 170.45 94.16 170.76 89.02 170.40 83.91 C 169.24 81.34 166.81 79.73 164.47 78.34 Z" />
<path fill="#ee1a23" opacity="1.00" d=" M 264.94 73.89 C 267.73 71.85 270.39 69.63 272.95 67.30 C 275.32 69.38 277.62 71.58 280.28 73.31 C 281.59 74.53 283.17 72.95 284.30 72.27 C 286.41 70.74 288.40 69.07 290.42 67.43 C 293.31 69.36 296.04 71.52 298.61 73.85 C 298.63 84.08 298.53 94.30 298.52 104.52 C 298.86 104.85 299.52 105.50 299.86 105.83 C 296.77 107.52 294.38 110.64 290.99 111.57 C 288.74 109.72 286.38 107.67 285.17 104.97 C 284.39 95.69 285.32 86.32 284.72 77.02 C 283.82 76.48 282.91 76.00 281.97 75.55 C 279.39 77.66 280.13 81.00 280.10 83.93 C 280.31 91.54 279.20 99.19 280.47 106.75 C 278.43 108.49 276.44 110.36 274.04 111.60 C 271.50 110.49 269.33 108.57 267.56 106.47 C 266.37 96.38 268.36 86.05 266.65 76.02 C 265.24 76.35 263.85 76.70 262.46 77.09 C 262.54 86.94 262.00 96.82 262.62 106.65 C 260.57 108.47 258.68 110.67 255.97 111.49 C 253.54 109.92 250.72 108.00 249.79 105.16 C 249.60 94.97 249.85 84.77 249.77 74.57 C 249.36 74.44 248.55 74.18 248.14 74.05 C 251.03 71.99 253.89 69.89 256.67 67.68 C 259.23 69.99 261.93 72.17 264.94 73.89 Z" />
<path fill="#ee1a23" opacity="1.00" d=" M 305.44 81.07 C 311.54 76.58 316.65 70.79 323.21 66.93 C 326.63 71.22 333.41 73.88 333.61 80.00 C 331.24 87.41 322.48 90.18 319.01 96.85 C 320.08 99.66 322.81 102.13 325.99 101.78 C 328.68 101.10 330.98 99.42 333.59 98.50 C 329.43 103.57 324.02 107.55 318.90 111.60 C 315.87 111.18 313.90 108.27 311.50 106.59 C 309.55 104.55 305.98 103.31 305.95 100.06 C 305.62 93.73 306.45 87.35 305.44 81.07 M 319.22 78.28 C 319.12 82.79 319.04 87.33 319.42 91.83 C 321.90 89.93 324.45 87.38 323.96 83.94 C 323.98 81.13 321.07 79.83 319.22 78.28 Z" />
<path fill="#ee1a23" opacity="1.00" d=" M 382.48 73.59 C 386.86 69.90 392.17 66.99 397.98 66.66 C 402.04 66.47 406.52 67.63 409.11 70.98 C 411.41 73.76 411.67 77.58 411.66 81.04 C 411.59 88.84 411.59 96.65 411.47 104.46 C 411.85 104.86 412.61 105.67 413.00 106.07 C 410.96 107.88 408.86 109.62 406.91 111.52 C 403.17 111.72 401.37 107.71 398.23 106.38 C 395.85 108.14 393.71 110.21 391.16 111.75 C 388.04 109.20 384.59 107.05 381.63 104.32 C 379.31 101.84 379.85 98.13 379.72 95.01 C 379.83 91.61 379.13 87.51 381.92 84.93 C 386.30 80.85 392.89 81.24 398.35 82.42 C 398.34 80.08 398.35 77.74 398.43 75.41 C 394.20 70.10 387.44 73.51 382.59 75.84 C 382.56 75.28 382.51 74.15 382.48 73.59 M 393.93 87.78 C 391.53 89.82 392.33 93.26 392.28 96.01 C 392.24 99.49 394.75 102.68 398.29 103.06 C 398.37 97.47 398.40 91.88 398.35 86.29 C 396.83 86.66 395.01 86.45 393.93 87.78 Z" />
</g>
<g id="#1c1a1aff">
<path fill="#1c1a1a" opacity="1.00" d=" M 27.65 49.20 C 48.42 49.16 69.18 49.21 89.95 49.18 C 89.95 69.81 89.94 90.44 89.97 111.07 C 69.18 110.93 48.39 111.01 27.60 111.02 C 27.67 90.42 27.59 69.81 27.65 49.20 M 31.65 53.18 C 31.64 71.12 31.68 89.06 31.63 107.01 C 35.53 106.96 39.43 106.99 43.33 106.88 C 40.49 105.65 37.38 104.12 36.20 101.03 C 34.80 95.30 39.43 90.51 43.09 86.74 C 37.37 82.25 34.39 74.47 36.67 67.41 C 38.24 60.24 44.43 55.18 51.20 53.10 C 44.68 53.12 38.17 53.27 31.65 53.18 M 64.89 52.98 C 67.50 54.19 70.06 55.50 72.50 57.03 C 73.98 55.65 75.52 54.33 77.09 53.04 C 73.02 53.18 68.95 53.10 64.89 52.98 M 80.86 61.83 C 80.01 62.16 77.46 61.95 78.21 63.49 C 81.04 68.87 81.99 75.49 79.25 81.10 C 75.43 89.32 65.45 92.73 56.91 91.91 C 53.50 91.35 49.91 92.64 47.97 95.56 C 50.27 98.16 53.66 99.28 57.08 99.16 C 64.44 99.08 72.08 98.95 78.99 101.93 C 81.74 103.11 83.68 105.48 85.88 107.43 C 85.80 92.09 85.89 76.75 85.85 61.41 C 84.18 61.53 82.51 61.58 80.86 61.83 M 54.37 63.43 C 47.11 66.22 47.08 77.71 54.31 80.55 C 60.92 84.07 69.42 77.41 67.79 70.22 C 66.63 64.41 59.75 60.66 54.37 63.43 Z" />
<path fill="#1c1a1a" opacity="1.00" d=" M 382.04 118.85 C 384.52 118.90 387.01 118.88 389.49 118.93 C 389.40 119.93 389.31 120.93 389.23 121.93 C 388.26 121.93 386.32 121.92 385.35 121.92 C 385.40 122.68 385.49 124.21 385.54 124.97 C 386.45 124.95 388.27 124.93 389.18 124.91 C 389.09 125.63 388.90 127.07 388.80 127.79 C 387.64 127.85 386.49 127.92 385.34 127.99 C 385.36 128.72 385.40 130.17 385.41 130.90 C 386.76 131.04 388.11 131.17 389.46 131.32 C 389.39 132.33 389.32 133.34 389.25 134.36 C 386.84 134.30 384.44 134.27 382.04 134.28 C 381.98 129.14 381.97 123.99 382.04 118.85 Z" />
<path fill="#1c1a1a" opacity="1.00" d=" M 110.01 122.08 C 110.65 118.87 114.18 118.47 116.88 118.79 C 117.00 119.60 117.23 121.21 117.34 122.02 C 115.93 121.64 114.58 121.72 113.29 122.27 C 113.35 125.58 118.40 126.54 118.05 130.04 C 118.16 134.04 113.46 135.16 110.31 134.17 C 110.20 133.31 109.98 131.60 109.87 130.74 C 111.35 130.64 114.50 132.70 114.46 129.86 C 112.89 127.32 109.03 125.64 110.01 122.08 Z" />
<path fill="#1c1a1a" opacity="1.00" d=" M 127.54 118.81 C 128.41 118.82 130.15 118.85 131.01 118.87 C 131.74 122.38 132.14 125.94 132.49 129.50 C 133.69 126.04 134.11 122.40 134.81 118.82 C 135.54 118.84 137.00 118.89 137.72 118.91 C 138.15 122.37 138.83 125.79 139.56 129.20 C 140.22 125.77 140.88 122.34 141.23 118.86 C 142.38 118.89 143.54 118.92 144.70 118.95 C 143.60 124.10 142.50 129.26 141.31 134.39 C 140.54 134.37 139.01 134.32 138.24 134.29 C 137.73 130.83 136.99 127.40 136.30 123.97 C 135.35 127.38 134.80 130.89 133.98 134.33 C 133.23 134.33 131.73 134.33 130.97 134.33 C 129.67 129.19 128.67 123.99 127.54 118.81 Z" />
<path fill="#1c1a1a" opacity="1.00" d=" M 155.17 118.84 C 156.37 118.85 157.58 118.87 158.79 118.90 C 158.86 124.04 158.85 129.19 158.75 134.33 C 157.56 134.34 156.36 134.36 155.17 134.38 C 155.11 129.20 155.03 124.02 155.17 118.84 Z" />
<path fill="#1c1a1a" opacity="1.00" d=" M 171.96 122.20 C 169.60 122.42 169.35 120.70 169.41 118.85 C 172.32 118.89 175.24 118.92 178.15 118.85 C 178.14 119.53 178.13 120.89 178.12 121.57 C 177.51 121.77 176.29 122.17 175.68 122.37 C 175.40 126.30 175.64 130.26 175.70 134.20 C 174.47 134.25 173.24 134.30 172.01 134.35 C 171.97 130.30 172.05 126.25 171.96 122.20 Z" />
<path fill="#1c1a1a" opacity="1.00" d=" M 192.29 118.94 C 193.89 118.84 195.49 118.76 197.10 118.70 C 197.12 119.44 197.17 120.93 197.19 121.67 C 195.43 121.90 193.69 122.22 192.05 122.92 C 191.55 125.29 191.55 127.71 192.08 130.07 C 193.72 130.72 195.45 131.10 197.18 131.39 C 197.15 132.15 197.09 133.67 197.06 134.43 C 194.75 134.54 192.14 134.54 190.41 132.75 C 186.16 129.07 187.40 121.51 192.29 118.94 Z" />
<path fill="#1c1a1a" opacity="1.00" d=" M 208.04 118.91 C 209.24 118.90 210.45 118.89 211.65 118.89 C 211.62 120.79 211.60 122.68 211.60 124.57 C 212.49 124.58 214.27 124.59 215.16 124.59 C 215.13 122.66 215.10 120.73 215.10 118.80 C 216.29 118.87 217.49 118.94 218.69 119.01 C 218.62 124.09 218.93 129.19 218.56 134.26 C 217.71 134.31 216.02 134.42 215.18 134.48 C 215.12 132.18 215.13 129.88 215.16 127.58 C 214.01 127.63 212.86 127.65 211.72 127.79 C 211.48 129.96 211.67 132.16 211.66 134.35 C 210.75 134.33 208.93 134.30 208.02 134.28 C 208.17 129.16 208.15 124.03 208.04 118.91 Z" />
<path fill="#1c1a1a" opacity="1.00" d=" M 230.28 119.03 C 232.64 118.92 235.01 118.86 237.38 118.80 C 237.38 119.84 237.38 120.89 237.38 121.93 C 236.45 121.93 234.59 121.92 233.66 121.92 C 233.66 122.68 233.67 124.21 233.67 124.97 C 234.52 124.96 236.23 124.92 237.09 124.91 C 237.06 125.64 237.02 127.11 236.99 127.84 C 235.81 127.91 234.64 127.98 233.47 128.06 C 233.55 129.05 233.64 130.04 233.74 131.04 C 235.00 131.09 236.27 131.14 237.54 131.20 C 237.48 132.24 237.42 133.27 237.37 134.31 C 235.01 134.30 232.66 134.31 230.31 134.40 C 230.13 129.28 230.20 124.15 230.28 119.03 Z" />
<path fill="#1c1a1a" opacity="1.00" d=" M 249.16 120.06 C 250.56 118.22 253.06 118.95 255.02 118.89 C 255.11 119.64 255.28 121.15 255.36 121.91 C 253.90 121.55 252.53 121.69 251.25 122.32 C 251.61 125.58 256.31 126.58 256.05 130.04 C 256.19 131.46 255.07 132.53 254.54 133.75 C 252.50 134.42 250.37 134.66 248.27 134.14 C 248.17 133.30 247.98 131.64 247.88 130.80 C 249.36 130.83 251.46 132.15 252.50 130.49 C 252.12 127.99 249.17 126.83 247.83 124.83 C 248.04 123.18 247.72 121.24 249.16 120.06 Z" />
<path fill="#1c1a1a" opacity="1.00" d=" M 279.08 120.14 C 280.89 118.33 283.80 118.87 285.26 120.81 C 286.34 123.09 284.50 125.05 282.94 126.47 C 283.86 128.25 285.01 130.24 287.00 127.93 C 288.24 129.28 288.04 130.64 286.77 131.85 C 287.34 132.78 287.89 133.71 288.44 134.66 C 286.95 134.36 285.47 134.04 283.99 133.70 C 281.19 135.16 277.70 134.22 276.64 131.10 C 275.80 128.91 277.60 127.34 278.88 125.85 C 278.32 124.03 276.89 121.44 279.08 120.14 M 281.47 124.85 C 281.76 123.81 284.02 121.90 281.94 121.66 C 280.07 121.33 281.01 123.92 281.47 124.85 M 280.00 131.06 C 280.95 131.39 281.92 131.64 282.92 131.83 C 282.24 130.40 281.46 129.01 280.62 127.67 C 280.28 128.76 279.13 129.92 280.00 131.06 Z" />
<path fill="#1c1a1a" opacity="1.00" d=" M 308.91 120.10 C 311.47 118.38 316.32 117.61 316.33 122.00 C 314.79 121.90 313.25 121.83 311.72 121.79 C 311.77 124.75 314.73 125.95 316.22 128.10 C 317.19 129.96 316.02 131.83 315.42 133.59 C 313.33 134.32 311.13 134.58 308.93 134.35 C 308.90 133.34 308.82 131.33 308.78 130.33 C 309.39 130.68 310.61 131.40 311.22 131.76 C 312.00 131.13 313.54 130.79 312.93 129.50 C 311.75 128.20 310.38 127.10 309.29 125.74 C 307.99 124.09 308.80 121.96 308.91 120.10 Z" />
<path fill="#1c1a1a" opacity="1.00" d=" M 324.99 118.87 C 326.26 118.87 327.54 118.88 328.82 118.89 C 329.44 120.64 330.04 122.39 330.65 124.15 C 331.48 122.38 332.24 120.58 333.07 118.81 C 333.89 118.82 335.52 118.85 336.34 118.86 C 335.14 121.71 333.40 124.33 332.46 127.29 C 332.25 129.64 332.41 132.00 332.40 134.36 C 331.51 134.36 329.74 134.35 328.85 134.34 C 328.90 131.89 329.19 129.41 328.84 126.97 C 327.79 124.16 326.36 121.52 324.99 118.87 Z" />
<path fill="#1c1a1a" opacity="1.00" d=" M 346.11 120.04 C 347.58 118.30 349.99 118.89 351.97 118.87 C 352.04 119.63 352.19 121.16 352.27 121.92 C 350.79 121.67 349.39 121.84 348.05 122.45 C 349.07 125.75 354.05 127.09 352.98 131.08 C 352.20 135.47 344.14 136.12 344.68 130.83 C 346.54 131.35 348.50 131.59 350.11 130.30 C 348.43 128.42 346.61 126.66 344.88 124.84 C 345.07 123.19 344.61 121.20 346.11 120.04 Z" />
<path fill="#1c1a1a" opacity="1.00" d=" M 362.97 118.85 C 365.76 118.93 368.55 118.92 371.34 118.85 C 371.39 119.81 371.44 120.77 371.50 121.74 C 370.89 121.78 369.66 121.86 369.04 121.91 C 368.97 126.07 369.01 130.23 368.99 134.39 C 368.10 134.38 366.30 134.36 365.41 134.35 C 365.40 130.29 365.37 126.24 365.47 122.19 C 364.83 122.08 363.56 121.85 362.93 121.73 C 362.94 121.01 362.96 119.57 362.97 118.85 Z" />
<path fill="#1c1a1a" opacity="1.00" d=" M 401.39 118.69 C 402.82 118.80 404.25 118.96 405.67 119.17 C 406.17 122.19 406.53 125.23 407.30 128.19 C 407.75 125.08 408.02 121.95 408.70 118.88 C 410.14 118.87 411.58 118.86 413.02 118.85 C 413.60 124.01 414.09 129.18 414.35 134.37 C 413.53 134.37 411.88 134.37 411.06 134.37 C 410.98 130.51 410.80 126.64 410.45 122.80 C 409.42 126.54 409.35 130.52 408.14 134.20 C 407.59 134.20 406.50 134.20 405.95 134.21 C 405.16 131.18 404.93 128.04 404.54 124.95 C 404.54 124.52 404.55 123.68 404.55 123.25 C 403.10 126.73 403.48 130.64 403.05 134.32 C 402.22 134.32 400.55 134.33 399.72 134.34 C 400.12 129.11 400.90 123.92 401.39 118.69 Z" />
<path fill="#1c1a1a" opacity="1.00" d=" M 425.40 119.95 C 427.80 118.30 432.63 117.75 432.30 121.90 C 430.83 121.81 429.36 121.85 427.91 122.02 C 427.62 125.27 431.99 126.08 432.51 129.04 C 433.17 131.25 431.36 132.97 430.07 134.48 C 428.33 134.45 426.60 134.39 424.88 134.28 C 424.84 133.42 424.75 131.70 424.70 130.84 C 426.25 131.09 427.82 131.25 429.40 131.26 C 428.55 128.01 425.09 126.43 424.14 123.19 C 424.56 122.12 424.98 121.04 425.40 119.95 Z" />
</g>
</svg>
